<svg width="1024" height="1024" viewBox="0 0 1024 1024" fill="none" xmlns="http://www.w3.org/2000/svg">
  <defs>
    <linearGradient id="bg" x1="180" y1="128" x2="844" y2="896" gradientUnits="userSpaceOnUse">
      <stop stop-color="#2563EB"/>
      <stop offset="0.58" stop-color="#087EA4"/>
      <stop offset="1" stop-color="#0F9F7A"/>
    </linearGradient>
    <filter id="softShadow" x="-20%" y="-20%" width="140%" height="140%" color-interpolation-filters="sRGB">
      <feDropShadow dx="0" dy="16" stdDeviation="18" flood-color="#064E6B" flood-opacity="0.24"/>
    </filter>
    <filter id="shelfShadow" x="-20%" y="-80%" width="140%" height="260%" color-interpolation-filters="sRGB">
      <feDropShadow dx="0" dy="10" stdDeviation="10" flood-color="#064E6B" flood-opacity="0.28"/>
    </filter>
  </defs>
  <rect x="96" y="96" width="832" height="832" rx="174" fill="url(#bg)"/>
  <g filter="url(#softShadow)">
    <rect x="315" y="260" width="202" height="202" rx="42" fill="#F9FAFB"/>
    <rect x="551" y="294" width="178" height="168" rx="38" fill="#F9FAFB"/>
    <rect x="315" y="506" width="202" height="184" rx="40" fill="#F9FAFB"/>
    <rect x="551" y="506" width="178" height="184" rx="40" fill="#F9FAFB"/>
  </g>
  <g filter="url(#shelfShadow)">
    <rect x="254" y="724" width="516" height="37" rx="18.5" fill="#F9FAFB"/>
  </g>
  <path d="M628 581C628 565.5 644.8 555.9 658.1 563.9L704.6 591.8C717.5 599.5 717.5 618.2 704.6 625.9L658.1 653.8C644.8 661.8 628 652.2 628 636.7V581Z" fill="#087EA4"/>
</svg>
